<svg xmlns="http://www.w3.org/2000/svg" width="500" height="164" viewBox="0 0 500 164"><title>M&amp;amp;S-Logo-Web-H-500x164-White</title><polygon points="265.51 134.61 257.19 73.6 233.12 134.61 220.1 134.61 196.29 73.33 188.82 134.61 160.87 134.61 177.48 28.4 204.32 28.4 226.75 86.35 248.9 28.4 276.85 28.4 293.74 134.61 265.51 134.61" fill="#fff"/><path d="M351.24,45c-5.13,0-9.82,2.64-9.82,8.32s4.83,10.81,9.13,14.14c5.67-3.19,10.51-6.1,10.51-13.3,0-5.13-4.84-9.16-9.82-9.16M339.61,91.63c-6.08,2.2-11.35,5.55-11.35,12.76,0,8.31,6.24,11.37,13.7,11.37,4.42,0,10.8-3.06,14.52-5.4Zm38.77,43-7.2-8.61c-8.46,7.09-21.89,11.95-32.82,11.95-19.52,0-37.93-11.13-37.93-32.45,0-15.53,11.77-24.42,25.2-29.26-5.82-5.15-9.41-14.57-9.41-22.17,0-18.74,15.78-29.28,33.22-29.28s34.05,10.4,34.05,29.41c0,13.3-9,22.46-20.77,27.32L376,95.92c5.57-4.7,11-9.85,16.06-15l15.23,16.37a146.93,146.93,0,0,1-16.75,14.15l21.2,23.15Z" fill="#fff"/><path d="M448.05,138.48c-14.92,0-25.47-6.23-36.51-13.17l11-21.47c5.14,4.57,14.83,10.24,24.93,10.24,7.75,0,15.36-2.62,15.36-8.31,0-4.41-.69-6.52-11.08-10.4C448.47,94.14,440.6,91.08,436,89c-13.45-6.09-20.76-15.66-20.76-30.62,0-21.22,17.57-33.84,36.37-33.84,13.71,0,26.32,6.37,33.95,11.37L474.77,56.68a31.84,31.84,0,0,0-21.31-8.44c-6.79,0-10.66,3.74-10.66,9.29s6.49,7.62,12,9.71c3.36,1.25,8.74,3.45,11.53,4.57,15.89,6.36,24,16.07,24,32,0,22.71-21,34.64-42.35,34.64" fill="#fff"/><path d="M86.19,132.45A38.88,38.88,0,0,0,89.78,81.8l15-15v48.25h11V40.27L82.68,73.35a27.74,27.74,0,0,1,41.64-36c.17.16.88.82,1.06,1A61,61,0,0,1,71.7,141.57a38.62,38.62,0,0,0,14.49-9.12M78.4,30.58A38.84,38.84,0,0,0,67.1,58.5L48.9,40.24v74.84h11V66.84c6.3,6.3,18.51,18.57,18.51,18.57a27.73,27.73,0,0,1-38.14,40.24s-.81-.74-1-1a61.17,61.17,0,0,1,0-86.3A60.54,60.54,0,0,1,92.88,21.45,38.73,38.73,0,0,0,78.4,30.58m54.74,0h0a71.91,71.91,0,0,0-101.71,0,71.9,71.9,0,1,0,101.71,0" fill="#fff"/></svg>